<svg version="1.1"
      xmlns="http://www.w3.org/2000/svg"
      xmlns:xlink="http://www.w3.org/1999/xlink"  id="snapshot-13127" width="250" height="250" viewBox="0 0 250 250"><desc>This image was made on Patterninja.com</desc><defs>
<!-- image 08412 -->
<g id="transformed-08412" data-image="08412" transform="translate(-76.89603370785778, -76.28086543819494) rotate(339, 76.89603370785778, 76.28086543819494)"><g><svg version="1.1" width="153.79206741571556px" height="152.56173087638987px" viewBox="0 0 153.79206741571556 152.56173087638987"><g id="original-08412"><svg xmlns="http://www.w3.org/2000/svg" viewBox="0 0 95.415 95" xmlns:xlink="http://www.w3.org/1999/xlink" version="1.1" preserveAspectRatio="xMidYMid meet">
  <path d="M81.544 23.107c-2.458.567-2.603 8.423-.488 17.583 2.114 9.16 5.689 16.157 8.146 15.589 2.458-.567 4.004-7.36 1.89-16.519-2.115-9.161-7.09-17.221-9.548-16.653zM6.812 68.674C2.43 63.428.999 56.166.999 47.076 1 33.088 6.844 21.448 16.36 12.782 24.631 5.25 35.712 1 47.706 1c14.072 0 24.86 4.33 33.422 14.307 7.135 8.312 13.287 19.887 13.287 31.769 0 8.65-1.4 15.199-5.398 20.352-3.28 4.23-7.858 7.419-13.293 9.716-.066 4.993-.69 10.405-6.229 13.534C64.65 93.416 53.876 94 47.045 94c-8.886 0-17.767.137-22.868-4.152-3.277-2.754-4.646-8.417-4.932-12.512-5.015-2.058-9.284-4.89-12.434-8.661zm40.687-16.192c12.382 0 22.42-10.038 22.42-22.42s-10.038-22.42-22.42-22.42-22.42 10.038-22.42 22.42 10.038 22.42 22.42 22.42zm-41.403 2.67c2.436.653 6.253-6.214 8.686-15.295 2.433-9.08 2.562-16.936.125-17.589-2.436-.654-6.99 4.617-9.422 13.698s-1.825 18.533.612 19.186zm19.399 31.665c4.469 2.933 13.044 3.446 21.174 3.446 9.017 0 19.014-.031 23.665-3.938 2.741-2.303 2.906-8.779 2.906-11.753 0-1.238-.327-3.082-1.245-4.237-1.964-2.471-5.76-4.017-8.719-5.398-4.619-2.155-8.181-2.49-15.569-2.49-6.813 0-11.988.655-16.815 2.49-3.87 1.472-8.576 3.761-9.964 6.228-.522.928 0 2.257 0 3.407 0 3.47 1.159 10.008 4.567 12.245zm12.04-4.027c-1.376 0-2.491-1.388-2.491-8.303 0-6.916 1.115-8.304 2.491-8.304s2.491 1.388 2.491 8.303c0 6.916-1.115 8.304-2.491 8.304zm19.928 0c-1.376 0-2.491-1.388-2.491-8.303 0-6.916 1.115-8.304 2.491-8.304s2.491 1.388 2.491 8.303c0 6.916-1.115 8.304-2.491 8.304z" fill="rgba(169, 0, 0, 1)" stroke="none"/>
</svg>
</g></svg></g></g>
<!-- /image 08412 -->
</defs><rect x="0" y="0" width="250" height="250" fill="rgba(20, 20, 20, 1)"></rect><use xlink:href="#transformed-08412" transform="translate(-250, -250)"></use><use xlink:href="#transformed-08412" transform="translate(0, -250)"></use><use xlink:href="#transformed-08412" transform="translate(250, -250)"></use><use xlink:href="#transformed-08412" transform="translate(-250, 0)"></use><use xlink:href="#transformed-08412" transform="translate(0, 0)"></use><use xlink:href="#transformed-08412" transform="translate(250, 0)"></use><use xlink:href="#transformed-08412" transform="translate(-250, 250)"></use><use xlink:href="#transformed-08412" transform="translate(0, 250)"></use><use xlink:href="#transformed-08412" transform="translate(250, 250)"></use></svg>