<svg version="1.1"
      xmlns="http://www.w3.org/2000/svg"
      xmlns:xlink="http://www.w3.org/1999/xlink"  id="snapshot-57966" width="250" height="250" viewBox="0 0 250 250"><desc>This image was made on Patterninja.com</desc><defs>
<!-- image 99004 -->
<g id="transformed-99004" data-image="99004" transform="translate(-41.23105625617661, -41.231056256176586) rotate(14, 41.23105625617661, 41.231056256176586)"><g><svg version="1.1" width="82.46211251235322px" height="82.46211251235317px" viewBox="0 0 82.46211251235322 82.46211251235317"><g id="original-99004"><svg xmlns="http://www.w3.org/2000/svg" viewBox="0 0 512 512" xmlns:xlink="http://www.w3.org/1999/xlink" version="1.1" preserveAspectRatio="xMidYMid meet">
  <path d="M437.019 74.981C388.668 26.628 324.38 0 256 0S123.332 26.628 74.981 74.981C26.629 123.333 0 187.62 0 256c0 68.38 26.628 132.668 74.981 181.019C123.333 485.371 187.62 512 256 512c68.38 0 132.668-26.628 181.019-74.981C485.371 388.667 512 324.38 512 256s-26.628-132.668-74.981-181.019zM256 491.102C126.365 491.102 20.898 385.635 20.898 256S126.365 20.898 256 20.898 491.102 126.365 491.102 256 385.635 491.102 256 491.102z" fill="rgba(185, 160, 56, 1)" stroke="none"/>
  <path d="M256 41.796C137.887 41.796 41.796 137.888 41.796 256S137.887 470.204 256 470.204c118.112 0 214.204-96.092 214.204-214.204S374.112 41.796 256 41.796zm0 407.51C149.411 449.306 62.694 362.59 62.694 256S149.411 62.694 256 62.694c106.59 0 193.306 86.716 193.306 193.306S362.59 449.306 256 449.306z" fill="rgba(185, 160, 56, 1)" stroke="none"/>
  <path d="M417.735 204.921c-2.747-8.453-9.917-14.498-18.712-15.777l-84.463-12.272-37.771-76.536c-3.935-7.971-11.9-12.922-20.788-12.921-8.889 0-16.853 4.951-20.787 12.921l-37.773 76.536-84.462 12.272c-8.796 1.279-15.966 7.324-18.713 15.778-2.746 8.453-.498 17.558 5.866 23.762l61.117 59.575-14.429 84.121c-1.503 8.761 2.031 17.449 9.222 22.672 7.191 5.225 16.544 5.9 24.412 1.765L256 357.1l75.545 39.718a23.189 23.189 0 0 0 10.808 2.686c4.787 0 9.541-1.5 13.605-4.452 7.191-5.224 10.725-13.912 9.222-22.672l-14.428-84.121 61.117-59.575c6.365-6.203 8.613-15.309 5.866-23.763zm-255.776 54.847l-47.241-46.049c-.675-.657-.869-1.444-.578-2.339.29-.894.911-1.418 1.843-1.553l45.975-6.681v56.622zm41.796 101.189L170.73 378.32c-.834.439-1.642.379-2.403-.173-.762-.554-1.068-1.305-.909-2.234l15.357-89.535c.163-.947.179-1.896.083-2.83V200.11l20.898-3.036v163.883zm41.796-21.974l-20.898 10.987V168.953l20.898-42.343v212.373zm151.731-125.264l-65.051 63.41a10.452 10.452 0 0 0-3.005 9.249l15.356 89.535c.159.929-.146 1.679-.908 2.234-.762.555-1.57.612-2.404.173l-74.82-39.338V126.61l31.801 64.437a10.456 10.456 0 0 0 7.867 5.717l89.9 13.063c.932.135 1.551.657 1.842 1.553.291.895.096 1.682-.578 2.339z" fill="rgba(185, 160, 56, 1)" stroke="none"/>
</svg>
</g></svg></g></g>
<!-- /image 99004 -->

<!-- image 64320 -->
<g id="transformed-64320" data-image="64320" transform="translate(81.16215700630065, 112.72885975025032) rotate(341, 70.83784299369935, 70.27114024974968)"><g><svg version="1.1" width="141.6756859873987px" height="140.54228049949936px" viewBox="0 0 141.6756859873987 140.54228049949936"><g id="original-64320"><svg xmlns="http://www.w3.org/2000/svg" viewBox="0 0 95.415 95" xmlns:xlink="http://www.w3.org/1999/xlink" version="1.1" preserveAspectRatio="xMidYMid meet">
  <path d="M81.544 23.107c-2.458.567-2.603 8.423-.488 17.583 2.114 9.16 5.689 16.157 8.146 15.589 2.458-.567 4.004-7.36 1.89-16.519-2.115-9.161-7.09-17.221-9.548-16.653zM6.812 68.674C2.43 63.428.999 56.166.999 47.076 1 33.088 6.844 21.448 16.36 12.782 24.631 5.25 35.712 1 47.706 1c14.072 0 24.86 4.33 33.422 14.307 7.135 8.312 13.287 19.887 13.287 31.769 0 8.65-1.4 15.199-5.398 20.352-3.28 4.23-7.858 7.419-13.293 9.716-.066 4.993-.69 10.405-6.229 13.534C64.65 93.416 53.876 94 47.045 94c-8.886 0-17.767.137-22.868-4.152-3.277-2.754-4.646-8.417-4.932-12.512-5.015-2.058-9.284-4.89-12.434-8.661zm40.687-16.192c12.382 0 22.42-10.038 22.42-22.42s-10.038-22.42-22.42-22.42-22.42 10.038-22.42 22.42 10.038 22.42 22.42 22.42zm-41.403 2.67c2.436.653 6.253-6.214 8.686-15.295 2.433-9.08 2.562-16.936.125-17.589-2.436-.654-6.99 4.617-9.422 13.698s-1.825 18.533.612 19.186zm19.399 31.665c4.469 2.933 13.044 3.446 21.174 3.446 9.017 0 19.014-.031 23.665-3.938 2.741-2.303 2.906-8.779 2.906-11.753 0-1.238-.327-3.082-1.245-4.237-1.964-2.471-5.76-4.017-8.719-5.398-4.619-2.155-8.181-2.49-15.569-2.49-6.813 0-11.988.655-16.815 2.49-3.87 1.472-8.576 3.761-9.964 6.228-.522.928 0 2.257 0 3.407 0 3.47 1.159 10.008 4.567 12.245zm12.04-4.027c-1.376 0-2.491-1.388-2.491-8.303 0-6.916 1.115-8.304 2.491-8.304s2.491 1.388 2.491 8.303c0 6.916-1.115 8.304-2.491 8.304zm19.928 0c-1.376 0-2.491-1.388-2.491-8.303 0-6.916 1.115-8.304 2.491-8.304s2.491 1.388 2.491 8.303c0 6.916-1.115 8.304-2.491 8.304z" fill="rgba(146, 58, 58, 1)" stroke="none"/>
</svg>
</g></svg></g></g>
<!-- /image 64320 -->
</defs><rect x="0" y="0" width="250" height="250" fill="rgba(34, 34, 34, 1)"></rect><use xlink:href="#transformed-99004" transform="translate(-250, -250)"></use><use xlink:href="#transformed-99004" transform="translate(0, -250)"></use><use xlink:href="#transformed-99004" transform="translate(250, -250)"></use><use xlink:href="#transformed-99004" transform="translate(-250, 0)"></use><use xlink:href="#transformed-99004" transform="translate(0, 0)"></use><use xlink:href="#transformed-99004" transform="translate(250, 0)"></use><use xlink:href="#transformed-99004" transform="translate(-250, 250)"></use><use xlink:href="#transformed-99004" transform="translate(0, 250)"></use><use xlink:href="#transformed-99004" transform="translate(250, 250)"></use><use xlink:href="#transformed-64320" transform="translate(-250, -250)"></use><use xlink:href="#transformed-64320" transform="translate(0, -250)"></use><use xlink:href="#transformed-64320" transform="translate(250, -250)"></use><use xlink:href="#transformed-64320" transform="translate(-250, 0)"></use><use xlink:href="#transformed-64320" transform="translate(0, 0)"></use><use xlink:href="#transformed-64320" transform="translate(250, 0)"></use><use xlink:href="#transformed-64320" transform="translate(-250, 250)"></use><use xlink:href="#transformed-64320" transform="translate(0, 250)"></use><use xlink:href="#transformed-64320" transform="translate(250, 250)"></use></svg>